<svg width="24" height="40" viewBox="0 0 24 40" fill="none" xmlns="http://www.w3.org/2000/svg">
<path id="Vector" d="M17.468 0.746216L19.656 0.516602C21.082 1.56767 20.669 3.41268 21.155 5.03374L20.193 7.27898L23.77 13.2935C22.818 15.1943 20.66 14.0058 19.294 14.5346C17.203 17.0037 15.924 20.452 15.67 24.3062L16.985 25.6694L15.978 27.8338L17.699 29.7111L18.328 33.6332C17.12 35.3472 16.554 37.8504 14.728 39.3291L12.251 37.3588L11.026 39.3736L9.409 39.5434L8.47101 37.1122L9.65201 34.6293L5.88199 32.8376L16.454 13.1172C16.42 12.9062 16.325 12.316 16.034 11.7031C13.976 9.73199 13.659 12.3815 12.737 13.4641L8.487 13.9104L7.57101 15.6357C5.91501 16.4426 4.02801 16.475 2.20001 15.7279C3.02401 13.4083 4.46401 11.6247 6.29001 10.6675L1.49701 10.1411L0.833008 7.20864L2.72299 6.32413L4.70999 8.25972L6.83499 8.03736L7.659 9.75221L15.397 8.93965L15.73 5.38867L17.944 6.52868C18.489 4.49851 17.614 2.66077 17.468 0.746216ZM10.857 30.6862L11.473 31.3079C11.597 30.8737 11.686 30.4194 11.739 29.9504C11.739 29.9504 11.354 29.5624 11.162 29.3683L10.857 30.6862Z" fill="#416262"/>
</svg>
